# xmcd
#
# Track frame offsets: 
#        150
#        15782
#        31014
#        49286
#        67097
#
# Disc length: 1106 seconds
#
# Revision: 0
# Processed by: cddbd v1.5.2PL0 Copyright (c) Steve Scherf et al.
# Submitted via: ExactAudioCopy v1.0b2
#
DISCID=34045005
DTITLE=PAKT - Freiheit
DYEAR=2011
DGENRE=Industrial
TTITLE0=Freiheit
TTITLE1=Angriff
TTITLE2=Freiheit (Robert Goerl Remix By Robert Goerl Of DAF)
TTITLE3=Freiheit (Gummi-Drum-Remix By G. Thomas Of Funker Vogt)
TTITLE4=Freiheit (Freiheit Und Gerechtigkeit Rework By FORMALIN)
EXTD=
EXTT0=
EXTT1=
EXTT2=
EXTT3=
EXTT4=
PLAYORDER=
